<svg width="49" height="58" viewBox="0 0 49 58" fill="none" xmlns="http://www.w3.org/2000/svg">
<circle cx="25" cy="20" r="18.5" stroke="url(#paint0_linear_66_58)" stroke-width="3"/>
<path d="M18.2324 13.5186L18.3912 18.0092" stroke="#C2F47E" stroke-width="3" stroke-linecap="round"/>
<path d="M29.6279 13.5186L29.7867 18.0092" stroke="#C2F47E" stroke-width="3" stroke-linecap="round"/>
<path d="M23.4013 25.0668C23.7246 25.275 24.1386 25.2793 24.4662 25.078L47.3549 11.011C48.0459 10.5864 48.9284 11.1176 48.8765 11.927L46.7562 45.0058C46.7342 45.3481 46.5384 45.6552 46.2375 45.8195L24.422 57.7315C24.1165 57.8983 23.7462 57.8942 23.4444 57.7208L2.74437 45.823C2.45377 45.656 2.26618 45.3545 2.24474 45.02L0.126752 11.9774C0.0742593 11.1585 0.976077 10.6284 1.66605 11.0727L23.4013 25.0668Z" fill="url(#paint1_linear_66_58)"/>
<path d="M14 26C14 26 16.7794 32 24.5 32C32.2206 32 35 26 35 26" stroke="#FFFEEF" stroke-width="3" stroke-linecap="round"/>
<ellipse cx="13.5" cy="26" rx="2.5" ry="2" fill="#FFFEEF"/>
<ellipse cx="35.5" cy="26" rx="2.5" ry="2" fill="#FFFEEF"/>
<defs>
<linearGradient id="paint0_linear_66_58" x1="25" y1="0" x2="25" y2="40" gradientUnits="userSpaceOnUse">
<stop stop-color="#FEF44F"/>
<stop offset="1" stop-color="#ABF491"/>
</linearGradient>
<linearGradient id="paint1_linear_66_58" x1="24.5" y1="10" x2="24.5" y2="58" gradientUnits="userSpaceOnUse">
<stop stop-color="#AFF48D"/>
<stop offset="1" stop-color="#2AF4F3"/>
</linearGradient>
</defs>
</svg>
